# xmcd CD database file
#
# Track frame offsets:
#	150
#	12587
#	31110
#	43787
#	57090
#	75642
#	93887
#	112257
#	127377
#	147137
#	166820
#	186287
#	201880
#	238872
#	258595
#	275332
#
# Disc length: 4135 seconds
#
# Revision: 0
# Processed by: cddbd v1.5PL3 Copyright (c) Steve Scherf et al.
# Submitted via: CDex 1.51
#
DISCID=e6102510
DTITLE=Ruth Brown - You Don't Know Me/Touch Me In The Morning
DYEAR=1979
DGENRE=Blues
TTITLE0=If I Were A Bell
TTITLE1=Skylark
TTITLE2=Gee Baby Ain't I Good To You
TTITLE3=Miss Brown Blues
TTITLE4=Smile
TTITLE5=Secret Love
TTITLE6=You Don't Know Me
TTITLE7=Almost Like Being In Love
TTITLE8=Willow Weep For Me
TTITLE9=I'll Never Fall In Love Again
TTITLE10=What'll I Do
TTITLE11=Everybody's Talking
TTITLE12=Touch Me In The Morning
TTITLE13=After The Lovin'
TTITLE14=The Way You Look Tonight
TTITLE15=The Best Thing That Ever Happened
EXTD=YEAR: 1979
EXTT0=
EXTT1=
EXTT2=
EXTT3=
EXTT4=
EXTT5=
EXTT6=
EXTT7=
EXTT8=
EXTT9=
EXTT10=
EXTT11=
EXTT12=
EXTT13=
EXTT14=
EXTT15=
PLAYORDER=
